<mxfile host="app.diagrams.net" agent="Mozilla/5.0 (Windows NT 10.0; Win64; x64) AppleWebKit/537.36 (KHTML, like Gecko) Chrome/136.0.0.0 Safari/537.36" version="27.0.6">
  <diagram name="Página-1" id="4m2i2k6XlrQDB2GIQWrJ">
    <mxGraphModel dx="1281" dy="608" grid="1" gridSize="10" guides="1" tooltips="1" connect="1" arrows="1" fold="1" page="1" pageScale="1" pageWidth="827" pageHeight="1169" math="0" shadow="0">
      <root>
        <mxCell id="0" />
        <mxCell id="1" parent="0" />
        <mxCell id="enOPS1tEHtYAzE7dJYAg-5" style="edgeStyle=orthogonalEdgeStyle;rounded=0;orthogonalLoop=1;jettySize=auto;html=1;entryX=0;entryY=0.5;entryDx=0;entryDy=0;" parent="1" source="enOPS1tEHtYAzE7dJYAg-1" target="enOPS1tEHtYAzE7dJYAg-3" edge="1">
          <mxGeometry relative="1" as="geometry" />
        </mxCell>
        <mxCell id="enOPS1tEHtYAzE7dJYAg-15" value="Repassa" style="edgeLabel;html=1;align=center;verticalAlign=middle;resizable=0;points=[];" parent="enOPS1tEHtYAzE7dJYAg-5" vertex="1" connectable="0">
          <mxGeometry x="-0.0812" y="2" relative="1" as="geometry">
            <mxPoint x="5" y="-10" as="offset" />
          </mxGeometry>
        </mxCell>
        <mxCell id="enOPS1tEHtYAzE7dJYAg-16" value="Usa" style="edgeLabel;html=1;align=center;verticalAlign=middle;resizable=0;points=[];" parent="enOPS1tEHtYAzE7dJYAg-5" vertex="1" connectable="0">
          <mxGeometry x="-0.0812" y="2" relative="1" as="geometry">
            <mxPoint x="345" y="-10" as="offset" />
          </mxGeometry>
        </mxCell>
        <mxCell id="enOPS1tEHtYAzE7dJYAg-23" value="Repassa" style="edgeLabel;html=1;align=center;verticalAlign=middle;resizable=0;points=[];" parent="enOPS1tEHtYAzE7dJYAg-5" vertex="1" connectable="0">
          <mxGeometry x="-0.0812" y="2" relative="1" as="geometry">
            <mxPoint x="45" y="250" as="offset" />
          </mxGeometry>
        </mxCell>
        <mxCell id="enOPS1tEHtYAzE7dJYAg-1" value="&lt;p style=&quot;margin:0px;margin-top:4px;text-align:center;&quot;&gt;&lt;b&gt;MatrículasUI&lt;/b&gt;&lt;/p&gt;&lt;hr size=&quot;1&quot; style=&quot;border-style:solid;&quot;&gt;&lt;p style=&quot;margin:0px;margin-left:4px;&quot;&gt;+ homologar: boolean&lt;/p&gt;&lt;hr size=&quot;1&quot; style=&quot;border-style:solid;&quot;&gt;&lt;p style=&quot;margin:0px;margin-left:4px;&quot;&gt;+&amp;nbsp;verificarMatriculasPendentes()&lt;/p&gt;&lt;p style=&quot;margin:0px;margin-left:4px;&quot;&gt;&lt;font style=&quot;font-size: 10px;&quot;&gt;+ &lt;font style=&quot;&quot;&gt;setHomologacao(homologar:boolean)&lt;/font&gt;&lt;/font&gt;&lt;/p&gt;&lt;p style=&quot;margin:0px;margin-left:4px;&quot;&gt;&lt;font style=&quot;font-size: 10px;&quot;&gt;&lt;font style=&quot;&quot;&gt;+ getHomologacao(): boolean&lt;/font&gt;&lt;/font&gt;&lt;/p&gt;" style="verticalAlign=top;align=left;overflow=fill;html=1;whiteSpace=wrap;" parent="1" vertex="1">
          <mxGeometry y="51.25" width="180" height="102.5" as="geometry" />
        </mxCell>
        <mxCell id="enOPS1tEHtYAzE7dJYAg-6" style="edgeStyle=orthogonalEdgeStyle;rounded=0;orthogonalLoop=1;jettySize=auto;html=1;exitX=1;exitY=0.5;exitDx=0;exitDy=0;entryX=0;entryY=0.5;entryDx=0;entryDy=0;" parent="1" source="enOPS1tEHtYAzE7dJYAg-3" target="enOPS1tEHtYAzE7dJYAg-4" edge="1">
          <mxGeometry relative="1" as="geometry" />
        </mxCell>
        <mxCell id="enOPS1tEHtYAzE7dJYAg-3" value="&lt;p style=&quot;margin:0px;margin-top:4px;text-align:center;&quot;&gt;&lt;b&gt;MatrículasController&lt;/b&gt;&lt;/p&gt;&lt;hr size=&quot;1&quot; style=&quot;border-style:solid;&quot;&gt;&lt;p style=&quot;margin:0px;margin-left:4px;&quot;&gt;&lt;br&gt;&lt;/p&gt;&lt;hr size=&quot;1&quot; style=&quot;border-style:solid;&quot;&gt;&lt;p style=&quot;margin:0px;margin-left:4px;&quot;&gt;+&amp;nbsp;verificarMatriculasPendentes()&lt;/p&gt;&lt;p style=&quot;margin:0px;margin-left:4px;&quot;&gt;+&amp;nbsp;homologarMatricula(ID_matricula)&lt;/p&gt;&lt;p style=&quot;margin:0px;margin-left:4px;&quot;&gt;+&amp;nbsp;recusarMatricula(ID_matricula)&lt;/p&gt;" style="verticalAlign=top;align=left;overflow=fill;html=1;whiteSpace=wrap;" parent="1" vertex="1">
          <mxGeometry x="299" y="45" width="230" height="115" as="geometry" />
        </mxCell>
        <mxCell id="enOPS1tEHtYAzE7dJYAg-4" value="&lt;p style=&quot;margin:0px;margin-top:4px;text-align:center;&quot;&gt;&lt;b&gt;MatrículasDB&lt;/b&gt;&lt;/p&gt;&lt;hr size=&quot;1&quot; style=&quot;border-style:solid;&quot;&gt;&lt;p style=&quot;margin:0px;margin-left:4px;&quot;&gt;&lt;br&gt;&lt;/p&gt;&lt;hr size=&quot;1&quot; style=&quot;border-style:solid;&quot;&gt;&lt;p style=&quot;margin: 0px 0px 0px 4px;&quot;&gt;+&amp;nbsp;verificarMatriculasPendentes()&lt;/p&gt;&lt;p style=&quot;margin: 0px 0px 0px 4px;&quot;&gt;+&amp;nbsp;homologarMatricula(ID_matricula)&lt;/p&gt;&lt;p style=&quot;margin: 0px 0px 0px 4px;&quot;&gt;+&amp;nbsp;recusarMatricula(ID_matricula)&lt;/p&gt;" style="verticalAlign=top;align=left;overflow=fill;html=1;whiteSpace=wrap;" parent="1" vertex="1">
          <mxGeometry x="637" y="52.5" width="190" height="100" as="geometry" />
        </mxCell>
        <mxCell id="enOPS1tEHtYAzE7dJYAg-20" style="edgeStyle=orthogonalEdgeStyle;rounded=0;orthogonalLoop=1;jettySize=auto;html=1;exitX=1;exitY=0.5;exitDx=0;exitDy=0;entryX=0;entryY=0.5;entryDx=0;entryDy=0;" parent="1" edge="1">
          <mxGeometry relative="1" as="geometry">
            <mxPoint x="239.99999999999994" y="360" as="sourcePoint" />
            <mxPoint x="320" y="360" as="targetPoint" />
          </mxGeometry>
        </mxCell>
        <mxCell id="enOPS1tEHtYAzE7dJYAg-7" value="&lt;p style=&quot;margin:0px;margin-top:4px;text-align:center;&quot;&gt;&lt;b&gt;ConsultasUI&lt;/b&gt;&lt;/p&gt;&lt;hr size=&quot;1&quot; style=&quot;border-style:solid;&quot;&gt;&lt;p style=&quot;margin:0px;margin-left:4px;&quot;&gt;&lt;br&gt;&lt;/p&gt;&lt;hr size=&quot;1&quot; style=&quot;border-style:solid;&quot;&gt;&lt;p style=&quot;margin:0px;margin-left:4px;&quot;&gt;+&amp;nbsp;agendarConsulta(informacoes_paciente)&lt;/p&gt;" style="verticalAlign=top;align=left;overflow=fill;html=1;whiteSpace=wrap;" parent="1" vertex="1">
          <mxGeometry y="318.75" width="240" height="80" as="geometry" />
        </mxCell>
        <mxCell id="enOPS1tEHtYAzE7dJYAg-10" style="edgeStyle=orthogonalEdgeStyle;rounded=0;orthogonalLoop=1;jettySize=auto;html=1;exitX=0.5;exitY=1;exitDx=0;exitDy=0;entryX=0.5;entryY=0;entryDx=0;entryDy=0;" parent="1" source="enOPS1tEHtYAzE7dJYAg-8" target="enOPS1tEHtYAzE7dJYAg-9" edge="1">
          <mxGeometry relative="1" as="geometry" />
        </mxCell>
        <mxCell id="enOPS1tEHtYAzE7dJYAg-25" value="" style="edgeStyle=orthogonalEdgeStyle;rounded=0;orthogonalLoop=1;jettySize=auto;html=1;" parent="1" edge="1">
          <mxGeometry relative="1" as="geometry">
            <mxPoint x="559.9999999999999" y="359.863355704698" as="sourcePoint" />
            <mxPoint x="637" y="359.9036241610738" as="targetPoint" />
          </mxGeometry>
        </mxCell>
        <mxCell id="enOPS1tEHtYAzE7dJYAg-8" value="&lt;p style=&quot;margin:0px;margin-top:4px;text-align:center;&quot;&gt;&lt;b&gt;ConsultasController&lt;/b&gt;&lt;/p&gt;&lt;hr size=&quot;1&quot; style=&quot;border-style:solid;&quot;&gt;&lt;p style=&quot;margin:0px;margin-left:4px;&quot;&gt;&lt;br&gt;&lt;/p&gt;&lt;hr size=&quot;1&quot; style=&quot;border-style:solid;&quot;&gt;&lt;p style=&quot;margin:0px;margin-left:4px;&quot;&gt;+&amp;nbsp;agendarConsulta(informacoes_paciente)&lt;/p&gt;&lt;p style=&quot;margin:0px;margin-left:4px;&quot;&gt;+ verificar(informacoes_paciente)&lt;/p&gt;" style="verticalAlign=top;align=left;overflow=fill;html=1;whiteSpace=wrap;" parent="1" vertex="1">
          <mxGeometry x="320" y="300" width="240" height="115" as="geometry" />
        </mxCell>
        <mxCell id="enOPS1tEHtYAzE7dJYAg-9" value="&lt;p style=&quot;margin:0px;margin-top:4px;text-align:center;&quot;&gt;&lt;b&gt;Consulta&lt;/b&gt;&lt;/p&gt;&lt;hr size=&quot;1&quot; style=&quot;border-style:solid;&quot;&gt;&lt;p style=&quot;margin:0px;margin-left:4px;&quot;&gt;- ID&lt;/p&gt;&lt;p style=&quot;margin:0px;margin-left:4px;&quot;&gt;- valor&lt;/p&gt;&lt;p style=&quot;margin:0px;margin-left:4px;&quot;&gt;- nomeMedico&lt;/p&gt;&lt;p style=&quot;margin:0px;margin-left:4px;&quot;&gt;- sala&lt;/p&gt;&lt;p style=&quot;margin:0px;margin-left:4px;&quot;&gt;- hora&lt;/p&gt;&lt;p style=&quot;margin:0px;margin-left:4px;&quot;&gt;- data&lt;/p&gt;&lt;p style=&quot;margin:0px;margin-left:4px;&quot;&gt;- pacienteNome&lt;/p&gt;&lt;p style=&quot;margin:0px;margin-left:4px;&quot;&gt;- email&lt;/p&gt;&lt;p style=&quot;margin:0px;margin-left:4px;&quot;&gt;- Cpf&lt;/p&gt;&lt;p style=&quot;margin:0px;margin-left:4px;&quot;&gt;- dataNascimento&lt;/p&gt;&lt;p style=&quot;margin:0px;margin-left:4px;&quot;&gt;- telefone&lt;/p&gt;" style="verticalAlign=top;align=left;overflow=fill;html=1;whiteSpace=wrap;" parent="1" vertex="1">
          <mxGeometry x="335" y="510" width="210" height="190" as="geometry" />
        </mxCell>
        <mxCell id="enOPS1tEHtYAzE7dJYAg-11" value="1" style="text;html=1;align=center;verticalAlign=middle;resizable=0;points=[];autosize=1;strokeColor=none;fillColor=none;" parent="1" vertex="1">
          <mxGeometry x="170" y="98" width="30" height="30" as="geometry" />
        </mxCell>
        <mxCell id="enOPS1tEHtYAzE7dJYAg-12" value="1" style="text;html=1;align=center;verticalAlign=middle;resizable=0;points=[];autosize=1;strokeColor=none;fillColor=none;" parent="1" vertex="1">
          <mxGeometry x="269" y="98" width="30" height="30" as="geometry" />
        </mxCell>
        <mxCell id="enOPS1tEHtYAzE7dJYAg-13" value="1" style="text;html=1;align=center;verticalAlign=middle;resizable=0;points=[];autosize=1;strokeColor=none;fillColor=none;" parent="1" vertex="1">
          <mxGeometry x="520" y="98" width="30" height="30" as="geometry" />
        </mxCell>
        <mxCell id="enOPS1tEHtYAzE7dJYAg-14" value="1" style="text;html=1;align=center;verticalAlign=middle;resizable=0;points=[];autosize=1;strokeColor=none;fillColor=none;" parent="1" vertex="1">
          <mxGeometry x="607" y="98" width="30" height="30" as="geometry" />
        </mxCell>
        <mxCell id="enOPS1tEHtYAzE7dJYAg-17" value="Gerencia" style="text;html=1;align=center;verticalAlign=middle;resizable=0;points=[];autosize=1;strokeColor=none;fillColor=none;" parent="1" vertex="1">
          <mxGeometry x="440" y="445" width="70" height="30" as="geometry" />
        </mxCell>
        <mxCell id="enOPS1tEHtYAzE7dJYAg-18" value="1" style="text;html=1;align=center;verticalAlign=middle;resizable=0;points=[];autosize=1;strokeColor=none;fillColor=none;" parent="1" vertex="1">
          <mxGeometry x="440" y="480" width="30" height="30" as="geometry" />
        </mxCell>
        <mxCell id="enOPS1tEHtYAzE7dJYAg-19" value="1" style="text;html=1;align=center;verticalAlign=middle;resizable=0;points=[];autosize=1;strokeColor=none;fillColor=none;" parent="1" vertex="1">
          <mxGeometry x="440" y="415" width="30" height="30" as="geometry" />
        </mxCell>
        <mxCell id="enOPS1tEHtYAzE7dJYAg-21" value="1" style="text;html=1;align=center;verticalAlign=middle;resizable=0;points=[];autosize=1;strokeColor=none;fillColor=none;" parent="1" vertex="1">
          <mxGeometry x="239" y="360" width="30" height="30" as="geometry" />
        </mxCell>
        <mxCell id="enOPS1tEHtYAzE7dJYAg-22" value="1" style="text;html=1;align=center;verticalAlign=middle;resizable=0;points=[];autosize=1;strokeColor=none;fillColor=none;" parent="1" vertex="1">
          <mxGeometry x="299" y="360" width="30" height="30" as="geometry" />
        </mxCell>
        <mxCell id="enOPS1tEHtYAzE7dJYAg-24" value="&lt;p style=&quot;margin:0px;margin-top:4px;text-align:center;&quot;&gt;&lt;b&gt;ConsultasDB&lt;/b&gt;&lt;/p&gt;&lt;hr size=&quot;1&quot; style=&quot;border-style:solid;&quot;&gt;&lt;p style=&quot;margin:0px;margin-left:4px;&quot;&gt;&lt;br&gt;&lt;/p&gt;&lt;hr size=&quot;1&quot; style=&quot;border-style:solid;&quot;&gt;&lt;p style=&quot;margin: 0px 0px 0px 4px;&quot;&gt;+ salvar(c: Consulta)&lt;/p&gt;" style="verticalAlign=top;align=left;overflow=fill;html=1;whiteSpace=wrap;" parent="1" vertex="1">
          <mxGeometry x="637" y="316.25" width="190" height="82.5" as="geometry" />
        </mxCell>
        <mxCell id="enOPS1tEHtYAzE7dJYAg-26" value="Usa" style="text;html=1;align=center;verticalAlign=middle;resizable=0;points=[];autosize=1;strokeColor=none;fillColor=none;" parent="1" vertex="1">
          <mxGeometry x="580" y="330" width="40" height="30" as="geometry" />
        </mxCell>
        <mxCell id="enOPS1tEHtYAzE7dJYAg-27" value="1" style="text;html=1;align=center;verticalAlign=middle;resizable=0;points=[];autosize=1;strokeColor=none;fillColor=none;" parent="1" vertex="1">
          <mxGeometry x="560" y="360" width="30" height="30" as="geometry" />
        </mxCell>
        <mxCell id="enOPS1tEHtYAzE7dJYAg-28" value="1" style="text;html=1;align=center;verticalAlign=middle;resizable=0;points=[];autosize=1;strokeColor=none;fillColor=none;" parent="1" vertex="1">
          <mxGeometry x="607" y="360" width="30" height="30" as="geometry" />
        </mxCell>
        <mxCell id="enOPS1tEHtYAzE7dJYAg-30" value="" style="endArrow=open;endSize=12;dashed=1;html=1;rounded=0;exitX=0.5;exitY=1;exitDx=0;exitDy=0;entryX=1;entryY=0.5;entryDx=0;entryDy=0;edgeStyle=orthogonalEdgeStyle;" parent="1" source="enOPS1tEHtYAzE7dJYAg-24" target="enOPS1tEHtYAzE7dJYAg-9" edge="1">
          <mxGeometry width="160" relative="1" as="geometry">
            <mxPoint x="630" y="680" as="sourcePoint" />
            <mxPoint x="790" y="680" as="targetPoint" />
          </mxGeometry>
        </mxCell>
        <mxCell id="enOPS1tEHtYAzE7dJYAg-31" value="&lt;b&gt;&lt;u&gt;&lt;font style=&quot;font-size: 18px;&quot;&gt;Questão 1&lt;/font&gt;&lt;/u&gt;&lt;/b&gt;" style="text;html=1;align=center;verticalAlign=middle;resizable=0;points=[];autosize=1;strokeColor=none;fillColor=none;" parent="1" vertex="1">
          <mxGeometry width="110" height="40" as="geometry" />
        </mxCell>
        <mxCell id="enOPS1tEHtYAzE7dJYAg-32" value="&lt;b&gt;&lt;u&gt;&lt;font style=&quot;font-size: 18px;&quot;&gt;Questão 2&lt;/font&gt;&lt;/u&gt;&lt;/b&gt;" style="text;html=1;align=center;verticalAlign=middle;resizable=0;points=[];autosize=1;strokeColor=none;fillColor=none;" parent="1" vertex="1">
          <mxGeometry y="240" width="110" height="40" as="geometry" />
        </mxCell>
      </root>
    </mxGraphModel>
  </diagram>
</mxfile>
